<svg width="1971" height="652" viewBox="0 0 1971 652" fill="none" xmlns="http://www.w3.org/2000/svg">
<path d="M451.909 43.5L513.909 84.5L518.409 104.5L502.909 110L505.409 93.5L451.909 62.5L392.409 52.5L376.909 104.5L387.909 151L371.409 174.5L316.409 194L282.909 214.5L269.909 237L309.909 351.5L282.909 447.5L269.909 521L302.909 560L409.629 576.117L493.909 528.5L486.409 518L502.909 513.5L508.909 530.5L417.208 590.5L314.603 595.178L219.409 583L161.909 560L93.9087 521L0.908691 430L6.90869 424.5L22.9087 426.5L13.9087 239L62.9087 144.5L139.409 62.5L232.909 13H358.909L451.909 43.5ZM827.247 134.808L872.25 146.289L932.56 199.653L1012.41 159.887L1038.91 166.001L1079.9 233.53L1056.88 286.99L1025.62 301.59L1074.39 330.074L1099.91 376.307L1079.9 472.184L1037.05 521.137L963.328 535.307C963.173 535.321 920.757 539.24 897.29 528.293C879.203 519.856 850.762 497.901 850.669 497.829L855.722 453.925L864.903 447.705C862.407 472.594 870.821 476.614 897.29 472.184V246.555C897.29 246.555 891.83 229.507 883.123 223.582C874.816 217.93 857.916 218.565 857.861 218.567C857.829 218.569 857.798 218.571 857.766 218.572V209.983C873.641 206.76 880.605 203.897 877.051 191.734C856.382 168.463 811.47 139.274 766.302 129.461V124.81L827.247 134.808ZM884.909 278.501L893.409 298.501L878.409 301.501L875.409 295.001C868.124 293.995 868.76 292.581 865.409 298.501L855.409 390.501L844.909 472.501L781.909 520.501L748.409 532.001L721.409 520.501L680.909 491.001L696.409 464.501L691.909 443.501L716.409 439.001L745.409 460.501L726.409 478.001L721.409 472.001L727.909 456.501L713.909 457.501L706.409 484.501L737.909 491.001L770.909 476.501L789.909 464.501L813.159 445.251L822.409 407.001L770.909 439.001L744.909 407.001L728.409 365.001L747.409 300.501L733.909 314.001L728.409 300.501L740.409 277.501C756.241 282.153 765.32 281.861 781.909 275.501L784.409 289.001V320.001L764.409 365.001L770.909 400.001L777.909 413.001L822.409 381.501L832.559 300.501L822.409 278.501C841.609 282.062 859.335 283.321 882.409 271.001L884.909 278.501ZM1790.76 226.688C1745.59 236.5 1724.29 244.21 1703.62 267.481C1701.36 275.19 1683.53 280.802 1674.95 282.181C1667.66 281.175 1657.76 281.581 1654.41 287.501L1644.41 379.501L1633.91 461.501L1588.22 503.251L1537.22 510.751L1518.72 515.251L1478.22 485.751L1495.91 462.001V440.001L1514.91 438.001L1539.41 456.251L1524.41 474.001L1517.41 468.001L1522.41 460.001L1511.72 455.251L1503.72 479.251L1535.22 485.751L1568.22 471.251L1596.22 447.251L1619.47 428.001L1611.41 396.001L1559.91 428.001L1533.91 396.001L1517.41 354.001L1536.41 289.501L1522.91 303.001V289.501L1534.91 266.501C1548.97 270.489 1556.88 269.955 1570.91 264.501L1573.41 278.001V309.001L1553.41 354.001L1559.91 389.001L1566.91 402.001L1611.41 370.501L1626.25 289.501L1619.47 267.481C1638.69 267.165 1653.86 265.091 1676.91 257.001L1676.94 257.099L1710.76 235.634L1752.19 222.035H1790.76V226.688ZM151.909 246.5L118.909 264L107.909 344.5L139.409 413L167.409 490.5L224.409 513.5L249.409 443L287.409 361L244.909 237L224.409 233.5L151.909 246.5ZM368.409 332C387.895 354.932 400.41 363.247 425.909 369L351.909 422.5L342.909 471L355.909 488.5L408.409 463.5L425.909 417L417.409 408.5L406.909 418.5L401.909 406.5L418.909 395.5L441.409 413C434.581 435.591 431.501 448.29 427.409 471L355.909 513.5L301.909 482.5L320.409 361L368.409 332ZM1163.41 332C1182.89 354.932 1195.41 363.247 1220.91 369L1146.91 422.5L1137.91 471L1150.91 488.5L1203.41 463.5L1220.91 417L1212.41 408.5L1201.91 418.5L1196.91 406.5L1213.91 395.5L1236.41 413C1229.58 435.591 1226.5 448.29 1222.41 471L1150.91 513.5L1096.91 482.5L1115.41 361L1163.41 332ZM411.379 304.696L427.909 319.001L502.909 352.001L497.909 357.001L481.909 354.001C452.578 374.72 460.787 400.481 477.909 448.001L519.909 366.001L561.909 448.001C578.825 400.219 585.193 375.108 557.909 354.001L541.909 357.001L536.909 352.001L611.909 319.001L620.537 306.952L657.5 290.257L662.909 292.513L620.537 331.318L589.909 405.001C586.303 467.27 585.909 478.001 585.909 478.001L579.909 507.001L565.909 492.001C565.909 492.001 559.089 484.229 519.909 439.001C491.51 475.099 473.909 492.001 473.909 492.001L459.909 507.001L454.909 478.001C454.909 478.001 452.613 466.819 449.909 405.001L419.494 331.318L369.909 290.257L376.219 288.001L411.379 304.696ZM1206.38 304.696L1222.91 319.001L1297.91 352.001L1292.91 357.001L1276.91 354.001C1247.58 374.72 1255.79 400.481 1272.91 448.001L1314.91 366.001L1356.91 448.001C1373.83 400.219 1380.19 375.108 1352.91 354.001L1336.91 357.001L1331.91 352.001L1406.91 319.001L1415.54 306.952L1452.5 290.257L1457.91 292.513L1415.54 331.318L1384.91 405.001C1381.3 467.27 1380.91 478.001 1380.91 478.001L1374.91 507.001L1360.91 492.001C1360.91 492.001 1354.09 484.229 1314.91 439.001C1286.51 475.099 1268.91 492.001 1268.91 492.001L1254.91 507.001L1249.91 478.001C1249.91 478.001 1247.61 466.819 1244.91 405.001L1214.49 331.318L1164.91 290.257L1171.22 288.001L1206.38 304.696ZM940.266 359.918V472.184L958.083 502.551L1037.05 482.214L1071.34 377.094L1046.34 348.467L1000.62 330.074L940.266 359.918ZM732.909 143.001L696.409 164.501L712.909 248.001L654.909 410.001L700.409 406.001L709.409 404.501L710.909 393.001L701.909 394.001L703.409 384.501L712.909 379.001L728.909 397.001L732.909 414.501L716.409 424.501L701.909 434.001L612.909 458.501L602.909 438.001L612.909 434.001L682.909 248.001L659.409 164.501L647.409 170.001L638.409 181.501L629.409 174.001L645.409 150.001L650.409 154.501L683.909 148.001L722.909 133.001L732.909 143.001ZM1527.91 143.001L1491.41 164.501L1507.91 248.001L1449.91 410.001L1495.41 406.001L1504.41 404.501L1505.91 393.001L1496.91 394.001L1498.41 384.501L1507.91 379.001L1523.91 397.001L1527.91 414.501L1511.41 424.501L1496.91 434.001L1407.91 458.501L1397.91 438.001L1407.91 434.001L1477.91 248.001L1454.41 164.501L1442.41 170.001L1433.41 181.501L1424.41 174.001L1440.41 150.001L1445.41 154.501L1478.91 148.001L1517.91 133.001L1527.91 143.001ZM1790.65 307.607C1793.33 300.781 1800.99 297.302 1807.92 299.825C1813.87 301.991 1817.38 307.882 1816.78 313.904L1814.73 317.212L1815.79 317.873C1814.78 317.248 1814.73 317.214 1814.73 317.213L1814.73 317.214C1814.72 317.215 1814.72 317.217 1814.72 317.219C1814.72 317.223 1814.72 317.228 1814.71 317.234C1814.7 317.248 1814.69 317.268 1814.68 317.292C1814.65 317.341 1814.6 317.411 1814.55 317.502C1814.44 317.684 1814.27 317.95 1814.07 318.288C1813.66 318.964 1813.07 319.934 1812.37 321.12C1810.98 323.489 1809.11 326.745 1807.24 330.273C1805.38 333.783 1803.45 337.657 1801.98 341.24C1801.37 342.724 1800.77 344.336 1800.28 345.96H1692.55C1687.57 345.96 1683.55 349.989 1683.55 354.96V430.777C1683.55 435.747 1687.58 439.777 1692.55 439.777H1818.01C1822.98 439.777 1827.01 435.747 1827.01 430.777V371.095C1833.64 368.62 1838.65 362.826 1840.01 355.734V430.777L1840 431.345C1839.71 443.044 1830.28 452.474 1818.58 452.771L1818.01 452.777H1692.55L1691.98 452.771C1680.28 452.474 1670.85 443.044 1670.55 431.345L1670.55 430.777V354.96C1670.55 342.999 1680.09 333.268 1691.98 332.967L1692.55 332.96H1698.55L1692.82 317.218C1690.25 310.175 1693.88 302.389 1700.93 299.825C1707.97 297.262 1715.76 300.893 1718.32 307.936L1727.43 332.96H1781.42L1790.52 307.936L1790.65 307.607ZM1765.04 401.474C1770.07 401.474 1774.14 405.549 1774.14 410.576C1774.14 415.603 1770.07 419.678 1765.04 419.678H1745.85C1740.82 419.678 1736.74 415.603 1736.74 410.576C1736.74 405.549 1740.82 401.474 1745.85 401.474H1765.04ZM350.409 371.5L347.909 400L355.909 395.5C360.265 385.821 364.367 382.779 374.909 382L355.909 369L350.409 371.5ZM1145.41 371.5L1142.91 400L1150.91 395.5C1155.27 385.821 1159.37 382.779 1169.91 382L1150.91 369L1145.41 371.5ZM1730.29 373.236C1733.21 372.79 1735.97 374.751 1736.49 377.674C1737.02 380.596 1735.11 383.392 1732.22 383.985L1732.08 384.012L1700.63 389.639C1697.67 390.17 1694.83 388.193 1694.3 385.225C1693.77 382.256 1695.74 379.418 1698.71 378.887L1730.15 373.26L1730.29 373.236ZM1774.4 377.674C1774.92 374.751 1777.68 372.79 1780.59 373.236L1780.73 373.26L1812.18 378.887C1815.15 379.418 1817.12 382.256 1816.59 385.225C1816.06 388.193 1813.22 390.17 1810.25 389.639L1778.81 384.012L1778.67 383.985C1775.78 383.392 1773.87 380.596 1774.4 377.674ZM940.266 223.582V339.552L1043.48 262.617L1031.91 201.082L1004.91 195.082L940.266 223.582ZM269.909 66.5L194.909 100.5L124.409 194L151.909 209.5L212.909 204L365.409 141.5L362.909 97.5L354.409 62.5L269.909 66.5Z" fill="url(#paint0_linear_4_294)"/>
<path d="M1834.38 351.825C1834.38 359.869 1827.86 366.389 1819.82 366.389C1811.78 366.389 1805.26 359.869 1805.26 351.825C1805.26 343.782 1819.82 320.382 1819.82 320.382C1819.82 320.382 1834.38 343.782 1834.38 351.825Z" fill="#FF0080"/>
<path d="M1910.75 226.249L1901.9 224.228C1900.24 226.106 1903.7 227.782 1903.81 227.986C1904.66 229.656 1904.85 232.169 1905.74 233.635C1905.82 233.759 1907.43 235.334 1907.64 235.514C1911.89 239.133 1915.91 238.367 1918.16 233.187L1915.14 231.69L1914.54 226.222L1916.62 226.776C1920.84 225.865 1919.34 224.078 1919.21 221.481C1919.08 218.884 1924.25 217.967 1926.51 217.094C1926.93 217.962 1927.01 219.224 1927.47 219.913C1931.2 225.464 1935.97 232.774 1938.91 238.708C1939.83 240.567 1940.17 242.981 1941.03 244.923C1939.48 245.655 1937.38 245.853 1935.96 246.652C1935.56 246.878 1935.63 247.902 1935.22 248.169C1929.67 251.781 1929.59 252.53 1925.89 257.658C1925.63 258.027 1924.16 258.289 1923.66 260.315C1923.58 260.66 1924.14 261.152 1924.05 261.447C1923.61 262.936 1922.22 264.537 1921.83 265.984C1921.74 266.317 1921.14 270.681 1921.12 271.267C1921.1 272.171 1921.11 274.292 1921.15 275.037C1921.2 276.043 1922.15 277.311 1922.3 278.422C1922.36 278.894 1921.49 279.497 1921.56 279.939C1922.06 282.613 1924.21 288.73 1925.42 291.237C1926.08 292.602 1929.58 297.995 1930.75 299.504C1931.2 300.084 1932.8 299.877 1932.84 301.938L1927.78 305.558C1931.46 308.537 1932.7 303.727 1935.29 303.628C1937.01 303.761 1937.6 305.633 1937.95 305.869C1941.14 308.19 1950.44 311.286 1954.17 311.051C1955.51 310.971 1958.13 310.762 1959.06 310.646C1960.29 310.491 1961.68 309.586 1963 309.302C1964.24 310.902 1962.76 312.038 1962.83 312.506C1963.06 313.968 1964.29 315.723 1964.37 317.023C1964.49 318.928 1960.37 323.038 1959.55 324.975L1964.25 324.004C1964.53 325.322 1965.44 326.72 1965.59 327.955C1965.87 330.124 1965.76 334.485 1966.04 336.623C1966.22 337.866 1967.11 339.256 1967.39 340.574C1964.71 339.517 1963.14 341.179 1960.81 341.557C1960.36 341.635 1959.73 340.724 1959.29 340.81C1953.3 342.057 1947.35 346.061 1943.56 349.956C1940.2 352.242 1937.04 358.123 1935.75 362.075C1935.44 363.041 1935.24 366.143 1935.05 367.358C1933.1 379.876 1934.48 393.144 1944.36 402.007L1942.89 405.038L1945.36 408.603C1949.45 406.853 1953.19 405.806 1957.22 408.337L1961.54 408.125L1953.7 438.542L1939.38 435.239L1944.43 431.619L1944.41 427.849L1941.21 427.676L1939.74 430.707L1937.1 430.341C1933.95 435.575 1928.54 436.929 1924 439.853C1922.51 440.819 1920.17 441.908 1918.76 442.907C1918.57 443.033 1916.37 445.996 1916.16 446.323C1913.52 450.079 1908.15 462.3 1907.28 466.374C1906.91 468.158 1906.08 476.947 1906.25 478.077C1906.78 481.522 1910.12 485.487 1908.59 488.628L1910.64 487.295C1911.73 493.191 1917.89 494.983 1921.09 499.49L1903.41 525.06L1899.43 520.744L1900.52 516.592L1895.62 515.118C1893.42 520.607 1886.99 515.054 1884.33 515.192C1883.51 515.231 1882.73 516.03 1882.08 515.958C1881.27 515.869 1878.36 514.801 1877.94 514.846C1875.61 515.121 1865.62 518.643 1863.3 519.841C1862.9 520.04 1862.96 521.106 1862.55 521.358C1859.31 523.326 1855.77 525.114 1853.57 528.202L1845.02 539.943L1837.49 539.982L1834.89 543.398L1832.26 543.032L1831.72 546.995L1835.09 545.843L1835.51 550.745L1832.31 550.572L1828.96 555.494C1823.87 553.918 1829.17 550.834 1826.83 547.4L1820.49 554.605L1821.33 564.405L1823.96 564.77L1821.36 568.186L1824.15 565.336C1825.71 559.711 1831.29 558.909 1833.74 563.961L1837.29 561.485L1839.87 554.299L1846.12 559.736C1844.91 560.315 1843.27 560.457 1842.18 561.08C1836.55 564.341 1830.45 569.204 1824.58 572.129C1822.73 573.052 1820.33 573.377 1818.38 574.244C1818.02 571.701 1815.23 571.578 1813.27 570.312C1809.01 567.559 1806 566.285 1800.81 565.111C1799.3 564.768 1795.11 563.58 1794.03 563.648C1793 563.707 1791.74 564.679 1790.65 564.799C1790.18 564.848 1789.58 563.978 1789.14 564.052C1786.47 564.545 1780.37 566.689 1777.88 567.892C1776.79 568.417 1773.19 571.567 1771.9 572.46C1768.04 575.142 1765.46 576.315 1761.42 578.564C1761.03 578.785 1761.1 579.772 1760.68 580.081C1760.09 580.523 1759.06 580.405 1758.43 580.847C1757.12 581.763 1756.91 587.141 1757.94 588.587L1752.69 591.641L1752.52 594.845C1753.32 595.623 1756.13 594.966 1757.04 595.199C1758.5 595.56 1759.67 596.4 1759.89 598.006C1752.97 599.898 1745.96 603.405 1739.06 605.112C1738.65 605.217 1737.98 604.268 1737.55 604.365C1735.14 604.898 1732.67 606.233 1730.23 606.861C1729.95 605.543 1729.04 604.146 1728.89 602.91C1728.83 602.438 1729.72 601.831 1729.63 601.393C1728.35 595.244 1724.67 591.229 1721.99 586.345C1717.97 583.987 1713.53 580.434 1708.75 578.879C1707.8 578.571 1704.65 578.382 1703.48 578.151C1694.65 576.486 1684.2 576.07 1677.17 582.085L1666.98 577.992L1655.5 579.379C1659.38 582.936 1662.29 586.48 1663.5 591.778L1658.82 594.64C1655.48 599.432 1651.86 602.752 1646.07 599.623L1642.79 590.023L1646.91 587.355C1646.5 584.703 1645.29 583.927 1642.93 583.038L1643.28 580.389L1641.19 577.955L1639.89 579.665C1636.33 578.719 1636.8 574.678 1635.31 571.775C1635.11 571.376 1634.03 571.439 1633.79 571.028C1629.9 564.318 1624.65 558.031 1617.85 553.77C1613.02 550.752 1603.12 547.951 1597.86 548.608C1596.24 547.302 1593.15 549.393 1591.83 547.518C1591.34 546.825 1590.6 545.17 1591.43 544.507C1592.33 543.783 1593.57 542.97 1594.42 542.223C1597.23 539.812 1598.1 540.272 1600.79 538.788C1601.09 538.62 1601.32 536.622 1603.78 536.504C1605.44 537.477 1607.44 538.096 1609.06 539.111C1621.39 546.809 1631.3 557.166 1647.21 556.984L1675.54 570.017C1679.07 569.341 1683.48 566.56 1686.79 566.177C1687.83 566.061 1692.09 567.555 1693.58 567.64C1714.62 568.901 1739.61 568.553 1760.15 563.831C1762.89 563.202 1766.86 560.897 1769.16 560.758C1771.25 560.639 1774.3 565.498 1778.58 562.586C1779.1 562.231 1779.43 560.237 1780.05 559.556C1784.36 554.889 1790.88 552.89 1797.3 551.145C1797.7 551.033 1798.41 552.004 1798.81 551.892C1813.27 547.881 1817.65 543.062 1828.41 535.486C1835.39 530.576 1844.42 525.827 1850.48 519.134C1866.37 501.591 1884.75 483.833 1896.7 463.022C1903.14 451.8 1906.26 437.706 1916.76 429.7L1918.61 425.922C1918.33 421.669 1919.9 417.05 1920.39 412.702C1922.59 393.017 1925.25 370.686 1925.54 350.431C1926.06 312.337 1910.56 269.325 1890.38 236.347L1884.31 229.597L1891.76 220.116C1896.4 221.932 1901.77 223.752 1906.46 222.672L1910.81 226.229L1910.75 226.249ZM1918.02 240.161L1915.77 240.928L1916.93 244.312L1918.6 241.848L1918.02 240.15L1918.02 240.161ZM1917.81 261.656L1910.67 262.827L1913.73 268.091C1915.17 268.838 1917.98 263.153 1917.82 261.652L1917.81 261.656ZM1953.73 330.093C1951.03 330.106 1950.92 334.452 1949.82 335.208C1948.6 336.055 1945.28 335.542 1946.27 337.684L1951.16 337.279L1951.93 339.543L1958.29 336.108L1953.73 330.093ZM1963.15 331.922L1960.91 332.688L1961.68 334.953L1963.93 334.186L1963.15 331.922ZM1946.68 342.586L1945.91 340.322L1944.78 340.707L1945.55 342.971L1946.68 342.586ZM1942.37 414.668L1940.12 415.435L1941.27 418.82L1942.94 416.355L1942.36 414.657L1942.37 414.668ZM1657.23 569.956L1650.09 571.128L1652.38 574.127L1655.19 573.168L1657.23 569.945L1657.23 569.956ZM1891.79 491.175L1886.33 491.772L1884.87 496.682C1887.54 498.008 1889.97 498.416 1890.37 501.745L1897.5 500.574C1897.54 498.135 1894.46 498.226 1893.91 497.39C1893.06 496.136 1892.33 491.444 1891.79 491.175ZM1906.81 487.311L1904.57 488.078L1905.34 490.342L1906.81 487.311ZM1667.78 571.4L1665.53 572.166L1666.3 574.43L1668.55 573.664L1667.78 571.4ZM1906.88 494.859L1905.73 491.474L1904.6 491.859L1905.75 495.244L1906.88 494.859ZM1649.08 586.6L1646.1 588.884L1646.48 590.016L1650.24 589.996L1649.08 586.6ZM1904.36 509.584L1902.11 510.351L1903.27 513.736L1905.51 512.969L1904.36 509.584ZM1758.12 574.61C1755.99 576.147 1753.44 574.287 1751.54 575.592C1750.16 576.542 1750.59 579.304 1751.38 580.687L1756.07 577.825L1758.11 574.602L1758.12 574.61ZM1817.4 553.119L1814.03 554.27L1814.8 556.535L1818.17 555.383L1817.4 553.119ZM1748.41 582.966L1750.87 584.653L1751.44 584.46L1750.67 582.196L1748.41 582.966ZM1748.67 592.963C1747.93 593.213 1748.32 594.345 1749.05 594.095C1749.79 593.845 1749.4 592.713 1748.67 592.963Z" fill="#FF0080"/>
<path d="M1664.85 157.593L1664.17 166.647C1668.06 166.093 1668.94 162.038 1671.46 160.381C1674.41 155.647 1679.49 153.003 1684.95 152.001C1685.38 151.915 1685.99 152.807 1686.46 152.748C1688.62 152.466 1689.57 152.433 1691.35 152.343C1708.95 151.47 1724.08 149.72 1741.79 152.79C1744.55 153.276 1747.63 154.486 1750.26 153.679L1751.06 159.713L1755.95 159.309C1758.22 162.944 1753.43 165.046 1757.51 167.596L1753.4 170.264L1755.32 175.913L1756.41 171.762C1757.87 171 1760.28 170.846 1761.48 170.033C1762.04 169.651 1762.41 167.391 1762.96 167.002C1765.93 164.976 1770.14 166.685 1773.48 164.676C1773.75 164.508 1775.62 161.985 1776.08 161.26C1779.77 161.974 1783.45 163.725 1787.03 165.715C1791.34 168.112 1797.08 172.319 1801.4 174.675C1803.56 175.86 1814.49 180.659 1815.01 181.382C1816.74 183.874 1813.35 187.635 1813.2 190.82C1816.68 193.536 1817.48 190.192 1818.46 189.657C1820.04 188.789 1822.37 188.551 1824.09 187.735C1826.88 189.552 1832.49 188.787 1832.79 192.956L1832.24 195.039L1837.31 193.31C1837.99 193.76 1838.98 193.965 1839.58 194.43C1840.07 194.809 1841.36 197.01 1841.87 197.43C1848.83 203.256 1855.17 208.639 1860.83 216.174C1863.18 219.302 1863.06 222.188 1865.42 225.955C1865.84 226.633 1867.92 227.165 1868.09 230.087C1867.88 231.865 1866.32 232.234 1865.86 232.744C1863.54 235.33 1862.79 237.066 1858.76 237.696C1858.29 237.767 1857.15 236.284 1855.56 237.523L1856.17 242.991L1859.57 245.61C1858.36 249.357 1853.41 249.149 1850.01 250.766L1843.87 236.469L1842.59 240.054L1842.81 244.39C1840.81 244.981 1840.13 242.799 1839.6 242.338C1825.8 230.678 1813.65 214.996 1798.29 206.004C1793.55 203.235 1788.01 201.247 1783.18 198.547L1786.45 184.198L1784.73 181.006L1774.07 188.423L1766.51 184.696C1765.19 188.055 1759.6 186.675 1758.28 190.034C1754.81 189.522 1751.49 187.799 1748.47 187.073C1747.14 186.756 1744.59 186.613 1743.19 186.346C1741.26 185.995 1739.18 184.896 1737.35 185.811L1738.64 182.226L1734.86 180.366C1733.03 180.434 1732.24 183.461 1733.21 184.71L1732.64 184.903C1731.59 184.554 1729.38 183.856 1728.5 183.79C1723.67 183.491 1718.28 184.103 1713.44 183.883C1711.93 183.817 1710.67 183.957 1709.68 183.903C1709.18 183.872 1708.71 183.225 1708.17 183.156C1707.3 183.059 1706.08 183.679 1704.78 182.417C1704.79 180.201 1703.03 180.042 1702.49 179.417C1701.84 178.642 1701.03 176.303 1699.82 175.286C1699.41 174.933 1696.26 173.406 1696.05 173.426C1693.01 173.603 1691.69 176.936 1688.56 177.246L1685.24 185.949C1682.74 184.35 1679.75 187.076 1676.97 187.505L1670.01 187.356L1672.79 182.627L1673.33 178.664L1668.65 181.525L1663.55 179.485L1667.18 186.435L1667.02 189.639L1654.63 193.864C1654.25 192.176 1653.18 190.417 1652.9 188.781C1652.39 185.771 1652.19 180.86 1651.68 177.849C1651.4 176.214 1650.33 174.454 1649.94 172.766L1643.78 178.647C1640.13 176.544 1635.31 175.232 1631.15 176.649L1630 173.264L1637.64 164.349L1639.89 163.583C1644.83 164.502 1650.75 160.649 1656.03 159.338C1656.45 159.234 1657.12 160.183 1657.55 160.085C1659.96 159.552 1662.43 158.217 1664.86 157.59L1664.85 157.593ZM1670.92 164.344C1669.61 163.781 1666.75 168.926 1664.95 168.911L1665.75 174.945C1669.51 172.233 1669.91 168.506 1670.93 164.355L1670.92 164.344ZM1682.56 161.636L1677.89 166.376L1682.05 169.368L1682.78 165.972L1682.56 161.636ZM1678.12 170.708L1675.88 171.475L1675.9 175.245L1680.41 173.708L1678.12 170.708ZM1750.75 169.891L1750.91 166.687L1750.16 166.314L1749.62 170.276L1750.75 169.891ZM1727.49 179.092L1726.33 175.707L1725.2 176.092L1726.36 179.477L1727.49 179.092ZM1766.95 173.183L1766.18 170.919L1765.05 171.304L1765.83 173.568L1766.95 173.183ZM1827.49 214.305L1826.71 212.041L1825.59 212.426L1826.36 214.69L1827.49 214.305ZM1836.11 210.111L1832.93 211.829L1832.03 216.546L1838.4 213.111L1836.11 210.111ZM1835.43 219.164L1833.19 219.931L1833.96 222.195L1836.21 221.428L1835.43 219.164ZM1864.12 229.548L1861.87 230.314L1862.64 232.579L1864.89 231.812L1864.12 229.548Z" fill="#FF0080"/>
<path d="M1694.65 119.685L1689.02 121.607L1690.95 127.256L1684.2 129.559L1684.22 133.329L1687.78 130.852L1693.05 131.58C1694.43 127.521 1696.06 126.18 1700.34 125.314L1700.13 122.857L1708.45 126.958L1703.43 134.344L1716.38 129.926C1723.28 133.071 1731.68 132.301 1738.61 132.428C1739.35 132.438 1740.15 133.821 1741.8 132.601L1746.36 138.616L1751.41 133.116C1758.6 132.228 1760.52 126.518 1765.24 122.091C1765.8 121.558 1768.72 121.256 1768.6 119.048C1768.5 117.26 1766.52 115.688 1768.56 113.388L1773.86 117.885C1775.74 117.446 1777.66 116.296 1779.49 115.963C1779.93 115.889 1780.58 116.804 1781.01 116.71C1784.16 115.987 1787.4 114.277 1790.58 113.444C1790.44 114.693 1790.32 115.302 1790.41 116.648C1790.92 123.765 1793.45 136.425 1797.03 143.384C1797.22 143.783 1798.29 143.724 1798.54 144.131C1799.11 145.072 1799.12 146.664 1799.7 147.515C1799.95 147.907 1800.88 147.845 1801.21 148.262C1803.97 151.694 1804.94 151.438 1808.03 153.506C1813.98 157.478 1816.47 158.688 1823.51 160.206C1825.6 160.654 1831.33 162.139 1832.93 162.034C1833.95 161.975 1835.21 161.003 1836.3 160.883C1836.78 160.834 1837.38 161.704 1837.82 161.63C1839.57 161.309 1842.94 160.123 1844.57 159.326C1844.97 159.127 1844.91 158.035 1845.31 157.809C1846.61 157.102 1848.61 156.998 1849.81 156.273C1850.19 156.043 1850.14 155.113 1850.56 154.755C1853.53 152.211 1856.4 149.879 1857.64 146.033L1882.44 165.312C1875.89 169.24 1871.68 177.982 1871.88 185.937C1871.06 189.327 1865.41 191.014 1865.55 193.143C1865.61 194.171 1866.59 195.439 1866.7 196.527C1866.75 197.004 1865.88 197.603 1865.96 198.045C1866.5 201.286 1869.99 204.921 1865.09 206.532L1858.82 199.216C1856.11 198.688 1855.14 196.123 1853.52 194.718C1841.6 184.492 1829.1 176.435 1815.68 168.54C1806.47 163.136 1793.12 153.739 1782.81 151.383C1772.49 149.026 1760.94 147.57 1750.77 145.92C1727.67 142.188 1712.13 141.259 1689.79 144.03C1682.38 144.953 1672.95 145.439 1665.73 147.197C1656.28 149.486 1646.52 154.432 1637.02 156.991C1637.55 154.7 1638.88 151.53 1640.16 149.613C1642.41 146.256 1646.66 142.267 1649.11 138.992C1649.69 138.209 1650.11 136.297 1650.58 135.961C1653.06 134.229 1655.02 136.633 1657.37 137.424C1657.67 137.524 1658.2 136.939 1658.5 137.039C1660.01 137.57 1662.77 139.902 1664.15 138.887L1665.04 132.279C1666.99 131.537 1669.17 130.2 1670.85 129.033C1671.38 128.663 1671.7 126.656 1672.32 126.002C1673.52 124.758 1676.23 123.04 1677.18 121.816C1677.65 121.227 1677.84 120.228 1678.3 119.54L1677.11 112.374L1678.19 106.332C1679.9 107.721 1687.21 110.039 1688 111.172C1689.69 113.605 1690.41 114.054 1692.18 116.055C1692.79 116.754 1692.88 118.697 1694.65 119.62L1694.65 119.685ZM1767.71 127.54L1769.41 126.962L1770.52 124.686L1768.25 123.566L1766.55 124.143L1767.71 127.54ZM1765.47 128.306L1760.61 132.492L1764.96 136.05L1765.69 132.653L1765.47 128.317L1765.47 128.306ZM1853.45 165.106L1852.67 162.842L1851.01 165.307L1851.2 165.873L1853.45 165.106ZM1866.98 164.266L1862.27 163.346C1858.67 164.31 1854.52 167.281 1856.88 171.491C1857.45 171.752 1862.5 169.195 1864.2 168.995C1864.61 168.943 1867.49 169.969 1868.35 170.107C1869.84 170.344 1870.74 171.223 1872.67 169.895C1872.18 167.092 1870.52 165.284 1867.76 166.53L1866.98 164.266Z" fill="#FF0080"/>
<path d="M1614.09 163.565L1617.53 169.961C1615.51 169.955 1615.51 171.827 1615.11 172.052C1612.61 173.41 1608.84 173.861 1606.1 175.126C1601.69 177.15 1596.73 181.09 1592.61 183.506C1590.42 184.797 1585.11 187.961 1582.86 188.096C1582.18 188.138 1580.52 186.572 1579.84 186.599C1576.21 186.814 1573.02 193.289 1568.2 189.307L1563.52 192.168L1569.76 195.714C1570.46 196.791 1568.8 200.277 1568.3 200.624C1567.04 201.509 1564.12 202.783 1563.05 203.678C1553.91 211.358 1544.07 221.24 1535.79 230.635C1535.16 231.357 1534.92 233.068 1534.32 233.665C1532.45 235.492 1531.96 231.691 1530.55 231.806L1525.8 225.236C1527.8 225.133 1527.52 223.94 1528.22 223.145C1528.46 222.875 1529.14 223.007 1529.35 222.76C1531.58 220.077 1540.29 199.172 1540.06 197.04C1539.9 195.627 1538.65 193.907 1538.52 192.523C1538.12 188.223 1538.43 179.497 1538.75 174.787C1538.87 173.066 1540.35 170.689 1539.26 168.938C1541.32 168.437 1543.43 167.225 1545.46 166.823C1547.23 166.472 1552.1 166.593 1554.11 166.399C1556.13 166.205 1557.45 164.374 1559.76 166.368L1554.94 174.32L1563.28 182.19L1564.41 181.805C1564.74 179.784 1566.48 180.215 1567.4 179.521C1569.2 178.187 1572.48 174.362 1574.12 173.448C1576.17 172.309 1580.14 171.963 1582.39 171.892C1584.45 171.834 1595.28 172.89 1596.31 172.184C1599.38 170.089 1600.55 169.953 1603.8 168.363C1604.2 168.164 1604.16 167.03 1604.55 166.846C1607.52 165.504 1611.07 164.847 1614.12 163.58L1614.09 163.565ZM1578.48 180.757L1577.33 177.372L1574.91 181.343L1575.11 181.909L1578.48 180.757ZM1558.3 198.992L1554.93 200.143L1555.7 202.408L1559.07 201.256L1558.3 198.992Z" fill="#FF0080"/>
<path d="M1592.5 192.366L1592.76 200.469L1585.4 221.267C1584.96 221.417 1581.82 218.899 1581.24 218.275C1580.78 217.786 1580.94 216.685 1580.47 216.011C1579.38 214.448 1572.53 215.081 1570.29 213.809L1569.58 219.092L1561.88 220.456L1564.28 214.595L1572.88 206.619L1581.71 204.871C1580.46 202.666 1584.01 196.946 1585.59 195.975C1586.52 195.406 1588.04 195.393 1588.96 194.824C1590.5 193.895 1590.8 192.695 1592.52 192.347L1592.5 192.366Z" fill="#FF0080"/>
<path d="M1584.01 543.237L1585.74 548.32C1584.63 552.123 1580.45 552.437 1578.65 555.152L1569.87 564.452C1569.71 562.055 1567.53 562.292 1566.28 561.267C1566.02 561.053 1566.15 560.349 1565.89 560.135C1564.63 559.111 1562.41 558.251 1560.98 556.77C1559.15 554.89 1562.95 554.39 1562.82 552.992C1567.39 552.181 1572.1 545.024 1576.31 544.612C1576.8 544.56 1577.38 545.433 1577.82 545.359C1579.83 544.991 1581.97 543.73 1584.02 543.244L1584.01 543.237Z" fill="#FF0080"/>
<path d="M1875.05 232.123C1875.07 234.177 1876.76 234.03 1877.14 234.557C1880.38 239.128 1883.37 245.375 1886.3 250.341C1890.31 257.149 1895.72 265.223 1898.89 272.52C1900.55 276.341 1905.04 288.206 1905.44 291.72C1905.58 292.85 1903.7 296.057 1904.93 297.569L1902.12 298.528C1899.65 302.011 1902.76 303.833 1904.25 306.622L1901.44 307.582L1900.33 309.857L1903 313.989L1901.91 318.14L1908.5 319.037C1909.25 320.564 1909.43 322.779 1910.24 324.12C1911.79 326.712 1914.5 326.582 1915.56 332.387C1915.64 332.829 1914.76 333.432 1914.82 333.904C1915.7 340.645 1916.43 346.865 1916.48 353.509C1916.53 360.152 1915.82 368.484 1915.15 375.396C1914.49 382.309 1912.31 383.862 1910 389.768C1905.73 400.639 1903.6 414.043 1900.88 425.665C1898.43 436.132 1896.89 444.96 1891.33 454.77C1879.68 475.311 1864.2 492.613 1846.98 508.991C1841.94 513.783 1839.17 514.057 1833.5 517.371C1826.38 521.53 1820.02 528.527 1812.54 533.342C1805.06 538.156 1794.53 543.784 1785.93 547.464C1783.64 548.45 1776.61 551.175 1774.68 551.304C1774.36 551.325 1771.86 550.384 1772.78 549.425C1774.06 548.279 1779.44 540.112 1777.4 539.028C1774.37 541.97 1772.27 545.363 1767.85 546.064L1765.27 553.249C1762.63 553.935 1759.99 555.354 1757.39 555.938C1746.78 558.333 1733.23 559.748 1722.43 560.299C1689.98 561.979 1655.98 554.116 1626.69 541.274C1619.63 538.183 1614.16 534.137 1607.41 530.829L1607.32 519.511L1609.73 515.541C1609.49 517.494 1614.43 519.471 1614.64 518.906C1612.71 514.978 1612.77 512.86 1615.13 509.287L1613.23 507.408C1614.53 505.373 1614.79 502.112 1617.51 501.535C1618.25 504.442 1621.94 504.752 1624.14 506.213L1622.28 508.112L1626.05 509.972L1628.47 507.881L1629.05 509.579L1654.01 523.763C1654.51 526.827 1657.31 531.181 1657.48 533.929C1657.54 534.942 1655.01 537.461 1655.45 539.031L1662.76 536.536C1664.42 534.366 1663.43 532.705 1662.53 530.309L1666.82 526.316L1682.26 527.354L1688.85 526.372C1691.37 530.565 1688.63 533.244 1686.86 537.135L1681.05 540.381L1683.52 542.068C1685.8 541.933 1688.44 539.175 1690.65 540.897C1690.98 540.785 1694.44 536.003 1695.13 535.59C1698.77 533.401 1703.16 535.151 1707.16 534.014C1711.08 534.595 1710.42 543.24 1714 543.028C1718.65 542.757 1726.78 537.681 1732.01 536.881C1732.35 536.83 1733.81 538.277 1735.78 536.862C1736.31 536.477 1736.16 534.799 1738.2 534.771L1739.16 537.59L1744.06 539.064L1740.03 529.091C1742.68 529.199 1742.81 524.744 1743.94 523.977C1744.61 523.523 1747.55 522.544 1748.45 522.44C1749.45 522.324 1754.22 524.023 1755.24 523.903C1757.55 523.632 1764.01 521.149 1766.49 520.063C1766.88 519.891 1766.83 518.734 1767.23 518.546C1771.05 516.775 1774.94 516.218 1778.1 513.574L1792.02 513.866C1792.16 512.405 1793.63 512.283 1793.88 511.967C1795.35 510.241 1796.12 506.122 1797.59 504.397C1797.76 504.188 1799.34 502.574 1799.45 502.498C1801.1 501.478 1804 501.982 1804.69 499.444L1805.48 503.588L1807.19 504.9C1804.58 505.461 1802.53 507.527 1801.4 510.022L1811.16 507.322C1812.85 505.406 1811.62 504.325 1811.51 502.794C1811.44 501.857 1813.37 501.274 1810.74 500.53L1815.59 494.464L1822.17 493.482C1822.31 493.194 1821.48 492.428 1821.59 491.784C1822.07 489.092 1823.35 486.71 1824.92 484.972C1832.02 477.142 1841.06 470.377 1846.94 461.069L1848.27 463.14L1855.02 460.837L1852.9 454.622C1855.06 450.676 1857.33 446.778 1859.59 442.889C1875.1 416.072 1883.73 399.059 1883.44 367.297C1883.43 366.442 1884.75 364.88 1883.23 362.961L1897.87 357.965L1896.71 354.58L1907.96 350.741L1905.29 346.609C1903.61 347.005 1901.87 348.056 1900.23 348.338C1899.77 348.417 1899.16 347.513 1898.71 347.591C1895.27 348.221 1893.15 349.993 1890.65 351.604L1891.43 353.868C1889.78 355.1 1888.95 353.702 1888.23 353.695C1886.92 353.688 1885.59 355.115 1883.71 353.341L1883.32 352.209C1884.81 350.464 1883.13 349.053 1882.91 347.307C1882.01 340.018 1882.03 331.722 1880.1 324.318C1878.66 318.829 1873.43 308.47 1873.16 303.987C1873.02 301.734 1877.22 301.326 1877.64 298.68C1874.5 296.313 1874.4 299.078 1871.81 300.036C1870.76 294.911 1867.11 291.995 1866.06 286.871L1870 285.526L1870.88 278.918L1864.9 283.486L1857.26 268.437L1862.89 266.516L1862.03 252.945L1870.89 254.967L1874.96 246.637L1870.92 234.785L1875.04 232.116L1875.05 232.123ZM1878.13 241.157L1875.89 241.924L1877.04 245.308L1879.29 244.542L1878.13 241.157ZM1881.25 277.92L1880.14 280.196L1882.41 281.316L1883.52 279.04L1881.25 277.92ZM1884.51 285.629C1880.19 287.055 1874.53 287.733 1875.92 293.605L1882.28 290.169L1882.11 293.373L1884.77 295.614L1889.84 293.885L1890 290.681L1886.05 290.135L1884.51 285.618L1884.51 285.629ZM1895.5 295.745L1893.25 296.511L1893.83 298.209L1896.11 299.329L1896.67 299.137L1895.52 295.752L1895.5 295.745ZM1903.25 322.106L1905.71 323.793L1906.28 323.6L1905.51 321.336L1903.25 322.106ZM1887.64 346.34L1890.1 348.027L1890.67 347.834L1889.89 345.57L1887.64 346.34ZM1903.86 353.417L1901.62 354.183L1902.39 356.447L1904.63 355.681L1903.86 353.417ZM1879.55 418.446L1875.98 419.032L1875.47 424.881L1879.56 418.442L1879.55 418.446ZM1877.74 427.885L1878.9 431.269L1880.03 430.884C1878.97 429.337 1880.09 428.573 1880 427.114L1877.74 427.885ZM1621.84 521.505L1620.69 518.12L1620.13 518.312L1619.01 520.588L1621.84 521.52L1621.84 521.505ZM1878.93 435.051L1878.15 432.786L1877.03 433.172L1877.8 435.436L1878.93 435.051ZM1874.1 443.003C1873.45 439.471 1869.63 441.015 1867.11 439.083L1861.68 443.462L1863.22 447.978C1863.88 448.3 1869.82 445.222 1871.67 445.098C1872.71 445.034 1875.08 447.788 1877.51 445.632L1875.79 442.44L1874.1 443.018L1874.1 443.003ZM1881.57 435.412L1879.32 436.179L1880.1 438.443L1882.34 437.676L1881.57 435.412ZM1881.24 441.82L1880.46 439.556L1879.33 439.941L1880.11 442.205L1881.24 441.82ZM1883.14 443.699L1881.44 444.277L1880.33 446.553L1882.6 447.673L1883.72 445.397L1883.14 443.699ZM1880.94 452.006C1879.04 453.526 1877.23 451.023 1876.23 451.086C1874.48 451.202 1872 452.859 1870.03 453.2L1872.32 456.2C1867.03 457.953 1872.88 459.8 1875.55 460.139L1878.36 459.18L1877.21 455.795L1881.15 454.451L1880.94 451.994L1880.94 452.006ZM1651.65 531.507L1649.4 532.274L1650.17 534.538L1652.42 533.771L1651.65 531.507ZM1676.57 541.922L1679.42 544.729L1679.98 544.536L1679.96 540.766L1676.57 541.922ZM1696.51 541.412L1694.27 542.179L1695.04 544.443L1697.28 543.676L1696.51 541.412ZM1691.29 548.236L1685.09 550.351L1681.73 553.393L1686.64 554.868L1689.62 552.584L1691.28 548.24L1691.29 548.236ZM1697.7 548.578L1693.01 551.44L1691.71 553.15C1693.7 551.965 1694.75 554.235 1696.4 552.179C1696.88 551.586 1698.19 548.764 1697.69 548.594L1697.7 548.578ZM1837.69 502.076L1835.44 502.842L1836.22 505.106L1838.46 504.34L1837.69 502.076ZM1811.05 512.417L1808.8 513.183L1809.58 515.447L1811.82 514.681L1811.05 512.417ZM1824.22 510.452L1814.44 511.261L1817.11 515.393C1819.13 514.628 1821.27 514.085 1823.3 513.279C1825.1 512.564 1826.2 511.241 1824.22 510.437L1824.22 510.452ZM1839.77 502.619C1839.03 502.869 1839.42 504.001 1840.15 503.751C1840.89 503.5 1840.5 502.368 1839.77 502.619ZM1830.58 507.017L1828.33 507.783L1829.11 510.047L1831.35 509.281L1830.58 507.017ZM1835.47 506.612L1833.22 507.378L1834 509.643L1835.47 506.612ZM1768.72 535.693L1766.48 536.46L1766.86 537.592L1769.11 536.825L1768.72 535.693ZM1762.76 544.034L1759.18 542.729L1757.91 548.205C1760.72 547.84 1759.96 544.396 1762.77 544.019L1762.76 544.034ZM1767.62 539.848L1765.37 540.615L1765.76 541.747L1768.01 540.98L1767.62 539.848ZM1779.66 538.269L1779.85 538.835L1782.12 539.955L1783.04 537.113L1779.66 538.269Z" fill="#FF0080"/>
<path d="M1635.4 192.857L1637.71 199.638C1634.67 200.904 1631.11 201.562 1628.14 202.904C1617.18 207.869 1607.71 215.978 1597.06 222.329L1591.45 226.141C1592.45 224.536 1593.01 222.335 1594.04 220.846C1598.48 214.428 1602.26 213.796 1601.81 204.961C1601.71 202.886 1609.53 190.903 1610.33 187.559L1618 182.414C1618.08 184.838 1620.42 184.521 1621.59 185.599C1625.2 188.881 1624.14 189.724 1629.17 191.205C1631.32 191.846 1633.13 194.213 1635.39 192.861L1635.4 192.857Z" fill="#FF0080"/>
<defs>
<linearGradient id="paint0_linear_4_294" x1="744.524" y1="271.073" x2="744.524" y2="467.149" gradientUnits="userSpaceOnUse">
<stop stop-color="#E20068"/>
<stop offset="1" stop-color="#190038"/>
</linearGradient>
</defs>
</svg>
